<svg id="Layer_4" height="512" viewBox="0 0 512 512" width="512" xmlns="http://www.w3.org/2000/svg" data-name="Layer 4"><path d="m217.8 231.958a130.264 130.264 0 0 1 24.619 16.042l2.475 2.209 26.814 29.791a143.991 143.991 0 1 1 -263.708 80.043c0-50.424 27.589-95.9 66.848-121.614z" fill="#d6d5d2"/><path d="m42.892 266.77c107.534 43.638 168.972-7.354 187.8-27.4a125.418 125.418 0 0 0 -12.893-7.408l-142.951 6.467a148.945 148.945 0 0 0 -31.956 28.341z" fill="#afaeac"/><path d="m29.138 33.226 58.862-25.226h72l64 139.296-161.632 3.775 25.632-111.071-58.529 8.361" fill="#e84700"/><path d="m400 408h40v96h-40z" fill="#f4a74d"/><path d="m456 224h48l-39.7-167.386a38.4 38.4 0 0 0 -35.838-24.614h-93.762a13.513 13.513 0 0 0 -11.587 20.465l11.721 19.535 80 120z" fill="#f4bb03"/><path d="m374.834 168h40v24h-40z" fill="#ffc880"/><path d="m344 192h110.834v136h-110.834z" fill="#56bc13"/><circle cx="144" cy="184" fill="#d6d5d2" r="88"/><circle cx="20" cy="41" fill="#d6d5d2" r="12"/><circle cx="412" cy="100" fill="#231f20" r="12"/><circle cx="364" cy="100" fill="#231f20" r="12"/><path d="m376 128a16 16 0 0 0 32 0" fill="none" stroke="#231f20" stroke-linejoin="round" stroke-width="16"/><path d="m302.033 242.361 41.967-50.361v68l-31.445 7.022-72.555 4.978 27.413-26.492z" fill="#f4a03b"/><path d="m328 240-75.192 6.836a14.083 14.083 0 0 0 -12.808 14.025v19.139h80l88.4-31.2-16.4-32.8z" fill="#ffc880"/><path d="m456 192-64 24 16.4 32.8 47.6-16.8z" fill="#409608"/><path d="m344 328h112v80h-112z" fill="#e84700"/><path d="m400 408v96h-64l32-24v-72z" fill="#ffc880"/><path d="m334.834 72h88l24 24v31.041c0 22.621-10.338 40.959-32.959 40.959h-38.082a40.959 40.959 0 0 1 -40.959-40.959z" fill="#ffc880"/><path d="m374.834 184.188c11.687-.22 27.484-1.262 40-4.8v-11.388h-40z" fill="#ea9734"/><path d="m164 162.88h16.001v58.241h-16.001z" transform="matrix(.275 -.962 .962 .275 -59.865 304.636)"/><circle cx="412" cy="100" r="12"/><circle cx="364" cy="100" r="12"/><path d="m416 128h-16a8 8 0 0 1 -16 0h-16a24 24 0 0 0 48 0z"/><path d="m120 216a24 24 0 0 0 48 0h-16a8 8 0 0 1 -16 0z"/><path d="m511.8 222.205-38.537-167.386a8.012 8.012 0 0 0 -.329-1.077 46.674 46.674 0 0 0 -43.306-29.742h-93.762a21.513 21.513 0 0 0 -18.447 32.581l10.581 17.635v52.825a49.031 49.031 0 0 0 40 48.123v8.836h-24a7.982 7.982 0 0 0 -6.145 2.88l-.021.025-.011.013-39.813 47.776-45.925 4.175a22.308 22.308 0 0 0 -6.36 1.544 140.453 140.453 0 0 0 -16.864-11.569 95.858 95.858 0 0 0 2.385-84.875l.025-.011-64-139.3a8 8 0 0 0 -7.271-4.658h-72a8 8 0 0 0 -3.151.646l-54.418 23.322a20 20 0 1 0 2.869 31.932l44.282-6.327-22.9 99.238a95.885 95.885 0 0 0 8.976 87.675c-39.453 28.983-63.658 75.587-63.658 123.557 0 83.789 68.187 151.957 152 151.957s152-68.168 152-151.957a151.706 151.706 0 0 0 -9.52-52.988l23.951 4.79a7.992 7.992 0 0 0 1.569.155h16v96a8 8 0 0 0 8 8h16v60l-28.8 21.6a8 8 0 0 0 4.8 14.4h104a8 8 0 0 0 8-8v-88h8a8 8 0 0 0 8-8v-176h40a8 8 0 0 0 7.8-9.795zm-167.8-95.164v-47.041h76.687l19.313 19.313v27.728c0 9.91-2.432 32.959-24.959 32.959h-38.082a33 33 0 0 1 -32.959-32.959zm104 192.959h-96v-42.811l96-33.882zm0-93.66-35.6 12.566-9.268-18.536 44.868-16.827zm-64-50.34h24v8h-24zm27.884 24-59.884 22.456v-22.456zm-75.884 14.1v14.361l-9.8 3.675-5.659.514zm-82.468 40.7 75.192-6.836a7.955 7.955 0 0 0 2.084-.477l57.257-21.471 9.126 18.253-78.561 27.731h-70.63v-11.139a6.054 6.054 0 0 1 5.532-6.061zm-109.532-150.8a80 80 0 1 1 -80 80 80.09 80.09 0 0 1 80-80zm-124-59a4 4 0 1 1 4-4 4 4 0 0 1 -4 4zm19.872-6.206c-.051-.464-.128-.919-.21-1.373l49.981-21.421h65.229l39.718 86.448a95.811 95.811 0 0 0 -115.25 10.652l16.455-71.3a8 8 0 0 0 -8.927-9.719zm112.128 457.206c-74.99 0-136-60.99-136-135.957 0-43.078 21.88-84.963 57.511-110.943a95.867 95.867 0 0 0 146.689-6.785 121.294 121.294 0 0 1 13.834 9.267 22.152 22.152 0 0 0 -2.037 9.28v19.138a8 8 0 0 0 8 8h27.345a135.267 135.267 0 0 1 20.658 72.043c0 74.967-61.01 135.957-136 135.957zm168.792-200-34.339-6.868c-.2-.379-.412-.754-.616-1.132h34.163a8 8 0 0 0 2.662-.456l13.338-4.708v13.164zm39.208 200 12.8-9.6a8 8 0 0 0 3.2-6.4v-64h16v80zm72 0h-24v-80h24zm16-96h-96v-64h96zm16-184v-24a8 8 0 0 0 -8-8h-32v-8.9c19.713-4.107 32-22.063 32-48.062v-31.038a8 8 0 0 0 -2.343-5.657l-24-24a8 8 0 0 0 -5.657-2.343h-83.471l-9.39-15.651a5.512 5.512 0 0 1 4.727-8.349h93.762a30.583 30.583 0 0 1 28.172 18.992l36.149 157.008z"/><path d="m92.856 306.733-11.173 11.454 48.73 47.54a8 8 0 0 0 5.587 2.273h56v-16h-52.744z"/><circle cx="116" cy="156" r="12"/><circle cx="180" cy="156" r="12"/></svg>