<svg id="Capa_1" enable-background="new 0 0 512 512" height="512" viewBox="0 0 512 512" width="512" xmlns="http://www.w3.org/2000/svg"><g><g><g><path d="m455.878 363.378h-37.783c-7.884 0-14.275-6.391-14.275-14.275 0-7.884 6.391-14.275 14.275-14.275h37.783c7.884 0 14.275 6.391 14.275 14.275 0 7.884-6.391 14.275-14.275 14.275z" fill="#a6ced3"/><g><g><path d="m160.07 361.577 203.921-211.166-38.37-38.37-216.599 198.266c-11.296 10.34-11.44 28.094-.314 38.617l14.268 13.494c10.505 9.934 27.05 9.559 37.094-.841z" fill="#f9bc66"/><g><path d="m369.169 138.529h60.781v49.161h-60.781z" fill="#daeaef" transform="matrix(-.707 -.707 .707 -.707 566.755 560.977)"/><path d="m350.269 55.506 57.297 57.297c4.382 4.382 4.382 11.485 0 15.867l-44.244 44.244c-4.181 4.181-10.959 4.181-15.139 0l-45.295-45.295c-7.653-7.653-10.806-18.749-8.235-29.263 9.578-39.165-33.204-48.297-50.235-50.368-2.618-.318-3.646-3.597-1.652-5.322 32.164-27.817 71.862-22.801 107.503 12.84z" fill="#daeaef"/><path d="m447.45 152.687 13.869 13.869c4.335 4.335 4.335 11.365 0 15.7l-44.047 44.047c-4.335 4.335-11.365 4.335-15.7 0l-13.869-13.869c-4.335-4.335-4.335-11.365 0-15.7l44.047-44.047c4.335-4.336 11.365-4.336 15.7 0z" fill="#c7e0e5"/></g></g></g><path d="m483.25 444.711h-454.5c-11.736 0-21.25 9.514-21.25 21.25 0 11.736 9.514 21.25 21.25 21.25h454.5c11.736 0 21.25-9.514 21.25-21.25 0-11.736-9.514-21.25-21.25-21.25z" fill="#dd9674"/><path d="m483.25 444.711h-65.333c11.736 0 21.25 9.514 21.25 21.25 0 11.736-9.514 21.25-21.25 21.25h65.333c11.736 0 21.25-9.514 21.25-21.25 0-11.736-9.514-21.25-21.25-21.25z" fill="#d88459"/></g><path d="m302.234 248.152-50.704-50.776c-4.806-4.806-4.908-12.619-.101-17.424l11.716-10.724c-11.132-11.132-26.354-17.806-41.986-15.947l-15.925 1.894c-9.691 1.152-19.375-2.203-26.276-9.104l-48.884-48.884-78.887 78.887 58.113 58.113c2.854 2.854 5.139 6.225 6.734 9.932l11.18 25.987c6.477 13.177 15.079 25.198 25.462 35.58l22.974 23.341c7.369 7.369 19.449 7.155 26.544-.641 3.479-3.823 4.956-8.758 4.573-13.596-.188-2.373 2.591-3.78 4.396-2.227l.012.01c7.029 6.089 17.392 6.124 24.353-.211 5.498-5.004 7.21-12.479 5.161-19.038-.328-1.049.843-1.916 1.725-1.261 7.047 7.047 18.543 7.584 25.821.776 4.87-4.555 6.674-11.082 5.43-17.108-.312-1.508 1.416-2.589 2.635-1.647 7.161 7.161 18.771 7.161 25.933 0 7.162-7.161 7.162-18.771.001-25.932z" fill="#fdeeda"/><g><g><g><g><g><g><g><g><g><path d="m164.999 115.662-58.112-58.112c-5.091-5.091-13.344-5.091-18.435 0l-77.135 77.135c-5.091 5.091-5.091 13.344 0 18.435l58.112 58.112z" fill="#cbee9a"/><path d="m171.905 109.002-18.789-18.789c-3.63-3.63-9.514-3.63-13.144 0l-96.04 96.04c-3.63 3.63-3.63 9.514 0 13.144l18.789 18.789c3.63 3.63 9.514 3.63 13.144 0l96.04-96.04c3.63-3.63 3.63-9.515 0-13.144z" fill="#b7e86b"/></g></g></g></g></g></g></g></g></g><g><g fill="#fce2be"><path d="m234.483 284.131-35.294-35.294-.432.568c-6.435 8.459-5.629 20.371 1.886 27.886l20.34 20.34 1.687 1.688c4.668 4.668 6.283 11.225 4.865 17.209 2.896-.664 5.655-2.036 7.994-4.165 7.797-7.095 8.01-19.175.641-26.544z"/><path d="m176.782 278.294c-6.435 8.459-5.629 20.371 1.886 27.886l9.551 9.551c4.844 4.845 6.627 11.803 5.049 18.049 3.31-.865 6.429-2.649 8.927-5.394 6.645-7.302 6.004-18.673-.976-25.655z"/><path d="m302.234 248.152-50.704-50.776c-3.831-3.831-4.662-9.567-2.413-14.173l-10.748 10.748c-4.381 4.381-4.92 11.5-.861 16.18.194.224.398.443.611.656l50.704 50.776c4.703 4.703 6.297 11.322 4.822 17.343 3.146-.771 6.132-2.364 8.59-4.822 7.16-7.161 7.16-18.771-.001-25.932z"/><path d="m268.688 266.471-47.09-47.09-.428.562c-6.435 8.459-5.629 20.371 1.886 27.886l32.137 32.137c4.669 4.669 6.283 11.228 4.864 17.214 2.895-.665 5.652-2.037 7.99-4.165 7.796-7.095 8.01-19.175.641-26.544z"/></g></g><path d="m407.566 112.803-18.03-18.03c-11.264-11.264-29.527-11.264-40.791 0l-13.575 13.575c-9.424 9.424-25.433 1.702-23.953-11.543.192-1.721.54-3.528 1.073-5.42 10.068-35.747-27.425-49.429-47.468-54.113-7.704-1.8-15.844.055-21.844 5.211-.053.045-.105.091-.158.136-2.016 1.74-1.052 5.044 1.591 5.366 17.013 2.068 59.764 11.185 50.263 50.289-2.562 10.546.542 21.669 8.216 29.343l45.295 45.295c4.181 4.181 10.959 4.181 15.139 0l44.244-44.244c4.38-4.379 4.38-11.483-.002-15.865z" fill="#c7e0e5"/></g><g><path d="m483.25 437.211h-38.764v-66.333h11.392c12.007 0 21.775-9.769 21.775-21.775s-9.769-21.775-21.775-21.775h-37.783c-12.007 0-21.775 9.769-21.775 21.775s9.769 21.775 21.775 21.775h11.392v66.333h-400.737c-15.853 0-28.75 12.897-28.75 28.75s12.897 28.75 28.75 28.75h322.682c4.143 0 7.5-3.358 7.5-7.5s-3.357-7.5-7.5-7.5h-322.682c-7.582 0-13.75-6.168-13.75-13.75s6.168-13.75 13.75-13.75h454.5c7.582 0 13.75 6.168 13.75 13.75s-6.168 13.75-13.75 13.75h-96.756c-4.143 0-7.5 3.358-7.5 7.5s3.357 7.5 7.5 7.5h96.756c15.853 0 28.75-12.897 28.75-28.75s-12.897-28.75-28.75-28.75zm-71.931-88.108c0-3.736 3.039-6.775 6.775-6.775h37.783c3.736 0 6.775 3.04 6.775 6.775s-3.039 6.775-6.775 6.775h-37.783c-3.736 0-6.775-3.04-6.775-6.775z"/><path d="m34.718 187.126c-2.192 6.083-.771 12.893 3.911 17.574l18.789 18.79c6.546 6.546 17.202 6.548 23.751 0l3.413-3.413 19.415 19.415c2.19 2.19 3.923 4.746 5.148 7.592l11.18 25.987c.05.116.104.231.159.345 1.819 3.7 3.802 7.301 5.923 10.809l-22.451 20.55c-14.493 13.266-14.679 36.097-.403 49.598l14.269 13.494c13.488 12.755 34.857 12.16 47.643-1.08l24.055-24.909c7.016-.242 13.477-3.229 18.223-8.443 2.824-3.103 4.786-6.77 5.796-10.736 8.986 3.635 19.552 2.025 27.039-4.789 4.095-3.727 6.798-8.614 7.891-13.855 8.564 2.468 18.13.588 24.892-5.737 3.769-3.524 6.319-7.957 7.48-12.761 8.937 3.074 19.392 1.138 26.697-6.168 10.093-10.091 10.102-26.438.004-36.536l-11.384-11.4 49.328-51.08c7.059 4.844 16.813 4.173 23.141-2.155l.336-.336 13.493 13.494-.056.056c-7.252 7.253-7.252 19.054 0 26.307l13.869 13.869c7.27 7.269 19.035 7.271 26.308 0l44.047-44.047c7.251-7.253 7.251-19.054 0-26.306l-13.869-13.869c-.001 0-.001 0-.001 0-6.823-6.822-17.568-7.223-24.854-1.303l-13.653-13.653c5.882-7.343 5.428-18.122-1.376-24.927l-57.297-57.297c-38.62-38.619-82.624-43.557-117.712-13.211-6.897 5.962-3.418 17.337 5.651 18.44 9.242 1.124 31.733 5.174 40.923 18.465 4.214 6.094 5.173 13.512 2.932 22.676-2.852 11.663.056 24.106 7.573 33.382l-31.843 29.148c-12.638-10.243-27.906-15.044-42.825-13.271l-15.925 1.894c-7.454.89-14.777-1.65-20.086-6.959l-10.187-10.186 3.133-3.133c6.563-6.561 6.566-17.186.001-23.75l-18.789-18.791c-4.619-4.62-11.374-6.113-17.502-3.937l-28.726-28.726c-8.008-8.007-21.035-8.007-29.043 0l-77.134 77.134c-8.007 8.007-8.007 21.035 0 29.042zm119.956 169.241c-7.153 7.409-19.063 7.677-26.545.602l-14.269-13.494c-7.941-7.51-7.898-20.2.226-27.635l20.858-19.092c8.498 11.143 13.264 14.748 35.404 37.584.958.958 1.99 1.83 3.077 2.618zm224.895-189.093 24.155-24.155 13.493 13.494-24.156 24.155zm62.577-9.284 13.869 13.869c1.404 1.404 1.404 3.689 0 5.094l-44.046 44.046c-1.41 1.409-3.691 1.404-5.094 0l-13.869-13.869c-1.404-1.404-1.404-3.689 0-5.094l44.047-44.046c1.405-1.405 3.686-1.407 5.093 0zm-186.441-115.734c27.298-17.861 59.326-11.38 89.261 18.554l57.297 57.297c1.45 1.45 1.45 3.81 0 5.26l-44.244 44.244c-1.249 1.25-3.279 1.253-4.531 0l-45.297-45.296c-5.786-5.786-8.183-14.284-6.253-22.177 3.272-13.382 1.535-25.081-5.164-34.77-9.564-13.833-27.172-20.192-41.069-23.112zm.939 143.092c17.93-16.412 41.408-37.903 48.746-44.621l29.265 29.265-49.099 50.844-28.723-28.763c-1.87-1.872-1.955-4.864-.189-6.725zm-82.99-33.974c8.581 8.581 20.41 12.676 32.465 11.248l15.925-1.894c10.179-1.21 20.725 1.905 29.831 8.648l-5.51 5.043c-.08.074-.16.15-.237.228-7.653 7.647-7.725 20.21.096 28.028l50.707 50.78c4.237 4.237 4.236 11.09 0 15.326s-11.089 4.236-15.325 0c-2.758-2.752-7.396-3.51-11.17-1.153-3.282 2.051-4.897 5.827-4.114 9.621.771 3.732-.428 7.513-3.208 10.113-4.215 3.94-11.119 3.672-15.394-.603-2.796-2.791-7.464-3.307-10.951-.829-3.058 2.174-4.358 6.045-3.237 9.63 1.272 4.072.104 8.385-3.05 11.255-4.097 3.727-10.15 3.766-14.427.062-3.138-2.698-7.545-3.231-11.234-1.358-3.686 1.872-5.855 5.744-5.528 9.864.237 2.997-.702 5.822-2.644 7.956-4.309 4.736-11.468 4.612-15.652.429-20.645-21.58-28.606-27.37-38.77-42.616-.033-.046-.061-.093-.095-.138-2.988-4.494-5.7-9.178-8.103-14.048l-11.104-25.811c-1.98-4.602-4.78-8.73-8.32-12.271l-19.414-19.415 68.28-68.281zm-157.032-11.386 77.134-77.134c2.158-2.158 5.67-2.158 7.828 0l27.571 27.571-9.314 9.314c-2.929 2.929-2.929 7.678 0 10.606 2.93 2.93 7.678 2.929 10.607 0 7.764-7.765 10.168-10.169 14.828-14.829.701-.701 1.834-.702 2.536 0l18.79 18.79c.702.703.702 1.833-.001 2.537-11.727 11.727-87.615 87.616-96.039 96.04-.701.7-1.839.7-2.538 0l-18.789-18.79c-.702-.703-.702-1.834.001-2.537 2.214-2.214 54.113-54.112 56.419-56.418 2.929-2.929 2.929-7.678 0-10.606s-7.677-2.93-10.607 0l-50.856 50.855-27.57-27.57c-2.165-2.165-2.164-5.665 0-7.829z"/></g></g></svg>