<svg id="Layer_4" height="512" viewBox="0 0 512 512" width="512" xmlns="http://www.w3.org/2000/svg" data-name="Layer 4"><path d="m336 480h-298a30 30 0 0 1 -30-30v-3.17c0-16.5 15.5-30.736 32-30.83h296z" fill="#e84700"/><path d="m256.618 400.481 71.382 55.519h-80a27.793 27.793 0 0 0 -27.793 27.793v20.207h191.793a60 60 0 0 0 60-60v-52c0-57.746-112.4-97.986-183.464-135.6l-40.536-32.4z" fill="#ad441a"/><path d="m176 416v-168h-144v168" fill="#4ba013"/><path d="m176 208-30.054-7.514-63.456 6.314-43.9 24.209a34.994 34.994 0 0 0 -13.6 47.584l54.821 98.679a20 20 0 0 0 24.09 9.164l144.099-50.436-16-48-112 32" fill="#4ba013"/><path d="m176 48v100c0 33.137-26.116 60-58.332 60h-23.333c-32.216 0-62.335-26.863-62.335-60v-92z" fill="#ffc880"/><path d="m250.306 224.349c-10.969-5.149-18.306-8.349-18.306-8.349l-16-56-40 48-96 40v40l96 16 43.343 42.03 4.657 13.97-112 144h48l112-120" fill="#ad441a"/><path d="m175.825 112c48.413-64 2.03-104-46.383-104h-52.567c-56.481 0-95.79 54.16-46.289 112l34.3-56 16.143 24 16.137-24 24.206 24 24.206-24z" fill="#f4bb03"/><path d="m232 288s48-24 56 8-40 40-40 40z" fill="#ffc880"/><path d="m306.033 226.579s-16.818 51.064-45.306 33.89-.254-56.822-.254-56.822z" fill="#ffc880"/><path d="m103.906 386.433 144.094-50.433-16-48-112 32z" fill="#4ba013"/><path d="m168 232h16v16h-16z"/><path d="m111.35 184a24.027 24.027 0 0 0 24-24h-16a8 8 0 0 1 -16 0h-16a24.027 24.027 0 0 0 24 24z"/><path d="m38 488h76.309l-8.624 11.088a8 8 0 0 0 6.315 12.912h48a8 8 0 0 0 5.849-2.542l91.629-98.174 47.206 36.716h-56.684a35.833 35.833 0 0 0 -35.793 35.793v20.207a8 8 0 0 0 8 8h191.793a68.077 68.077 0 0 0 68-68v-6.133c13.535-5.124 23.481-15.3 27.726-28.615 5.606-17.586.5-37.945-13.652-54.459-6.444-7.518-8.917-14.371-7.561-20.951 2.326-11.281 15.926-20.168 20.98-22.646a8 8 0 0 0 -6.976-14.4c-1.027.5-25.2 12.4-29.657 33.728-2.426 11.616 1.3 23.284 11.065 34.681 10.52 12.272 14.466 26.922 10.556 39.187a28.2 28.2 0 0 1 -12.481 15.762v-28.154c0-23.573-15.721-46.07-48.06-68.774-26.958-18.926-61.5-35.579-94.913-51.682-12.623-6.085-24.68-11.9-35.942-17.65a85.1 85.1 0 0 0 4.858-7.711 108 108 0 0 0 7.688-17.1 8 8 0 0 0 -4-9.648l-45.561-22.935a8 8 0 0 0 -10.113 2.505 89.872 89.872 0 0 0 -8.041 14.484c-2.975-1.365-5.447-2.481-7.252-3.288l-14.971-52.4a8 8 0 0 0 -13.838-2.924l-36.785 44.142-9.2-2.3a68.623 68.623 0 0 0 20.13-48.719v-33.392c26.119-36.048 22.43-62.224 14.574-77.937-11.139-22.276-38.051-36.671-68.562-36.671h-52.118c-31.36 0-59.045 16.028-70.529 40.834-11.571 24.995-5.492 54.76 16.635 82.045v25.121c0 18.027 7.674 35.165 21.609 48.257a73.779 73.779 0 0 0 17.416 12.143l-28.325 15.612a42.994 42.994 0 0 0 -16.7 58.463l6 10.8v118.249a38.1 38.1 0 0 0 -24 35.306v3.17a38.043 38.043 0 0 0 38 38zm292.08-202.044c62.772 30.258 133.92 64.553 133.92 106.044v52a52.059 52.059 0 0 1 -52 52h-183.793v-12.207a19.815 19.815 0 0 1 19.793-19.793h112a8 8 0 0 0 8-8 69.747 69.747 0 0 1 8.07-29.257c10.63-20.079 29.745-31.785 56.813-34.792l-1.767-15.9c-40.67 4.519-60.072 25.991-69.187 43.208a88.709 88.709 0 0 0 -9.248 28.741h-21.936l-62.306-48.46 9.409-10.081-11.7-10.917-109.625 117.458h-28.166l101.958-131.088a8 8 0 0 0 1.274-7.441l-2.164-6.493 20.627-7.219c4.752-.9 30.524-6.477 41.636-23.425 5.04-7.687 6.449-16.772 4.074-26.273-2.31-9.239-7.687-16.035-15.548-19.65a32.426 32.426 0 0 0 -7.926-2.42h.032a26.794 26.794 0 0 0 9.359-1.7 32.72 32.72 0 0 0 7.9-4.318c12.627 6.545 26.21 13.095 40.501 19.983zm-162.08 122.116-128 .745v-86.744l32.823 59.081a27.94 27.94 0 0 0 33.727 12.831l61.45-21.509zm16-9.674v-31.522l30.322-10.613.735 2.2zm57.908-105.973c9-3.445 23.243-7.333 31.62-3.48 2.165 1 5.216 3.011 6.711 9 1.3 5.189.671 9.636-1.916 13.595-5.091 7.792-16.8 12.63-25.042 15.011zm21.52-78.335 32.5 16.359c-3.891 8.8-11.165 21.632-19.812 24.838-2.257.837-5.878 1.574-11.258-1.669-4.678-2.821-7.434-6.489-8.423-11.214-1.915-9.142 2.885-20.813 6.993-28.314zm-84.351 1.294a8 8 0 0 0 3.069-2.263l30.317-36.381 11.845 41.46a8 8 0 0 0 4.5 5.136c.058.025 4.769 2.081 12.154 5.488a42.75 42.75 0 0 0 -.2 16.806c1.886 9.084 7.361 16.585 15.834 21.693a32.541 32.541 0 0 0 10.165 4.079 67.784 67.784 0 0 0 -20.772 2.838 110.653 110.653 0 0 0 -16.846 6.257l-53.608 15.317-87.535-14.591v-27.89zm-157.193-167.827c8.875-19.17 30.861-31.557 56.01-31.557h52.118c24.5 0 45.8 10.923 54.25 27.827 7.427 14.854 4.66 33.221-7.948 53.578l-23.514-37.644a8 8 0 0 0 -12.441-1.418l-18.347 18.344-18.343-18.344a8 8 0 0 0 -12.313 1.219l-9.344 14.016-9.344-14.015a8 8 0 0 0 -13.494.285l-27.958 46.032c-14.1-20.38-17.445-40.798-9.332-58.323zm18.116 100.443v-25.761l26.326-43.345 9.03 13.544a8 8 0 0 0 13.313 0l10.587-15.88 17.1 17.1a8 8 0 0 0 11.313 0l16.888-16.888 23.443 37.523v33.707c0 28.673-22.579 52-50.332 52h-23.333c-28.945 0-54.335-24.3-54.335-52zm-10.371 106.18a26.8 26.8 0 0 1 12.824-16.169l41.447-22.854a66.606 66.606 0 0 0 10.435.843h23.333a64.591 64.591 0 0 0 29.3-7.013l3.666.917-73.711 30.711a8 8 0 0 0 -4.923 7.385v40a8 8 0 0 0 6.685 7.891l60.995 10.166-21.88 6.251 4.4 15.385 104.635-29.9 11.085 33.256-136.654 47.83a11.979 11.979 0 0 1 -14.455-5.5l-46.811-84.252v-1.127h-.626l-7.386-13.3a26.819 26.819 0 0 1 -2.359-20.52zm-13.629 192.65a22.051 22.051 0 0 1 21.876-22l126.137-.735-37.259 47.905h-88.754a22.025 22.025 0 0 1 -22-22z"/><circle cx="76" cy="124" r="12"/><circle cx="140" cy="124" r="12"/></svg>