<svg id="Layer_4" height="512" viewBox="0 0 512 512" width="512" xmlns="http://www.w3.org/2000/svg" data-name="Layer 4"><path d="m32 136h88v104h-88z" fill="#56bc13"/><ellipse cx="440" cy="176" fill="#56bc13" rx="40" ry="48"/><path d="m406 447 34 17v-120l40 32v108.245a19.755 19.755 0 0 1 -19.755 19.755h-52.245l-52-26z" fill="#ffc880"/><path d="m120 440-48 24v-120l-40 32v108.245a19.755 19.755 0 0 0 19.755 19.755h52.245l56-28z" fill="#ffc880"/><path d="m336 496 80-56-56-48-80-24h-48l-80 24-56 48 80 56v16h160z" fill="#e84700"/><path d="m232 344v24a24 24 0 0 0 24 24 24 24 0 0 0 24-24v-24z" fill="#ffc880"/><path d="m232 364.638c11.323.62 32.383.713 48-5.433v-15.205h-48z" fill="#ea9734"/><g fill="#ffc880"><path d="m72 344h24v40h-24z"/><path d="m416 344h24v40h-24z"/><path d="m328 192v100c0 33.137-26.116 60-58.332 60h-23.333c-32.216 0-62.335-26.863-62.335-60v-92z"/></g><path d="m184 264 29.282-35.287 18.718 13.561 20-18.274 20 16 27.531-16 28.469 32-2.431-57.664-129.103 3.255z" fill="#e59c45"/><path d="m192 162.484c-31.447 18.5-44.064 59.013-8 101.516l24-56 24 24 20.118-24 24 24 24-24 27.882 48c35.385-47.18 20.837-81.317-8.483-96" fill="#f4bb03"/><path d="m328 264s56 23.761 56 96c0 0-56-24-56-96z" fill="#f4bb03"/><path d="m184 264s-56 23.761-56 96c0 0 56-24 56-96z" fill="#f4bb03"/><g opacity=".2"><path d="m284.105 152h-52.118c-40.7 0-73.509 28.614-69.559 66.453 32.885-49.715 109.784-58.738 154.886-59.5a80.424 80.424 0 0 0 -33.209-6.953z" fill="#fcfbfa"/></g><path d="m328 8h-144a40.118 40.118 0 0 0 -40 40 40.118 40.118 0 0 0 40 40h8v76a20 20 0 0 0 20 20h88a20 20 0 0 0 20-20v-76h8a40.118 40.118 0 0 0 40-40 40.118 40.118 0 0 0 -40-40z" fill="#d6d5d2"/><path d="m260.118 312a8.009 8.009 0 0 1 -8-8h-16a24 24 0 0 0 48 0h-16a8.009 8.009 0 0 1 -8 8z"/><path d="m216 112h16v40h-16z"/><path d="m248 112h16v40h-16z"/><path d="m280 112h16v40h-16z"/><path d="m56 168h16v48h-16z"/><path d="m80 168h16v48h-16z"/><path d="m488 176c0-30.879-21.533-56-48-56s-48 25.121-48 56c0 27.7 17.33 50.749 40 55.207v104.793h-16a8 8 0 0 0 -8 8v40a8 8 0 0 0 8 8h16v59.056l-10.507-5.256a7.983 7.983 0 0 0 -.287-11.876l-56-48a8.007 8.007 0 0 0 -2.907-1.589l-74.299-22.288v-4.709a67.255 67.255 0 0 0 43.395-40.492 109.385 109.385 0 0 0 18.757 27.614c14.978 16.046 30.063 22.622 30.7 22.895a8 8 0 0 0 11.148-7.355c0-39.926-16.4-65.843-30.157-80.554a107.069 107.069 0 0 0 -25.843-20.359v-.463c12.452-17.2 25.185-42.161 19.278-67.22-3.478-14.762-13.093-27.312-27.278-35.843v-59.561a48 48 0 0 0 0-96h-144a48 48 0 0 0 0 96v62.086c-15.77 10.584-26.015 25.887-29 43.544-2.369 13.993-1.06 35.243 16.874 59.889a109 109 0 0 0 -21.713 17.927c-13.761 14.711-30.161 40.628-30.161 80.554a8 8 0 0 0 11.151 7.354c.635-.272 15.72-6.849 30.7-22.895a109.389 109.389 0 0 0 19.025-28.171 69.36 69.36 0 0 0 16.735 23.969 73.742 73.742 0 0 0 26.389 15.923v5.867l-74.3 22.29a8.007 8.007 0 0 0 -2.907 1.589l-56 48a7.983 7.983 0 0 0 -.287 11.876l-10.506 5.254v-59.056h16a8 8 0 0 0 8-8v-40a8 8 0 0 0 -8-8h-16v-88h40a8 8 0 0 0 8-8v-104a8 8 0 0 0 -8-8h-88a8 8 0 0 0 -8 8v104a8 8 0 0 0 8 8h32v92.155l-37 29.6a8 8 0 0 0 -3 6.245v108.245a27.787 27.787 0 0 0 27.755 27.755h52.245a8 8 0 0 0 3.578-.845l44.4-22.2 16.022 11.21v11.835h16v-80h-16v48.635l-58.962-41.273 46.883-40.186 69.771-20.931a31.99 31.99 0 0 0 60.616 0l69.771 20.931 46.883 40.186-55.962 39.173v-46.535h-16v80h16v-13.935l13.018-9.112 44.4 22.2a8 8 0 0 0 3.582.847h52.245a27.787 27.787 0 0 0 27.755-27.755v-108.245a8 8 0 0 0 -3-6.247l-37-29.6v-108.946c22.67-4.458 40-27.507 40-55.207zm-112.874 169.325a94.963 94.963 0 0 1 -13.751-12.295c-13.768-14.971-21.986-33.229-24.525-54.421 13.404 9.796 33.831 30.366 38.276 66.716zm-287.126 6.675v24h-8v-24zm-48-120v-88h72v88zm97.075 246.518-34.964 17.482h-50.356a11.768 11.768 0 0 1 -11.755-11.755v-104.4l24-19.2v103.355a8 8 0 0 0 11.578 7.155l29.738-14.869zm14.925-430.518a32.037 32.037 0 0 1 32-32h144a32 32 0 0 1 0 64h-25.343a47.215 47.215 0 0 0 4.771-9.029 68.7 68.7 0 0 0 4.572-22.971h-16a52.957 52.957 0 0 1 -3.428 17.029c-4.029 10.071-10.759 14.971-20.572 14.971h-40c-9.7 0-16.385-4.784-20.432-14.626a52.73 52.73 0 0 1 -3.568-17.396l-8 .022h-8a68.7 68.7 0 0 0 4.572 22.971 47.229 47.229 0 0 0 4.771 9.029h-17.343a32.037 32.037 0 0 1 -32-32zm160 48v68a12.013 12.013 0 0 1 -12 12h-88a12.013 12.013 0 0 1 -12-12v-68zm-161.375 237.03a94.87 94.87 0 0 1 -13.775 12.313c2.539-21.247 10.754-39.517 24.517-54.454a94.135 94.135 0 0 1 13.784-12.281c-2.54 21.192-10.758 39.452-24.526 54.422zm20.146-128.73a48.33 48.33 0 0 1 15.99-28.182 28.035 28.035 0 0 0 25.239 15.882h88a28.045 28.045 0 0 0 26.22-18.183 39.022 39.022 0 0 1 13.485 21.257c3.134 13.295-.714 29.019-11.15 45.954l-21.519-37.047a8 8 0 0 0 -12.575-1.639l-18.343 18.344-18.343-18.344a8 8 0 0 0 -11.788.518l-14.507 17.307-17.823-17.824a8 8 0 0 0 -13.011 2.506l-18.562 43.313c-9.784-14.911-13.679-29.888-11.313-43.862zm101.229 163.7a16 16 0 0 1 -32 0v-8.313c2.109.2 4.223.313 6.335.313h23.333c.782 0 1.557-.033 2.332-.061zm-2.332-24h-23.333c-28.944 0-54.335-24.3-54.335-52v-26.357l18.7-43.631 15.645 15.646a8 8 0 0 0 11.788-.518l14.507-17.307 17.823 17.824a8 8 0 0 0 11.314 0l16.647-16.648 21.576 37.147v33.844c0 28.673-22.579 52-50.332 52zm154.332 32v-24h8v24zm48 3.845v104.4a11.768 11.768 0 0 1 -11.755 11.755h-50.356l-34.964-17.482 31.759-22.232 29.738 14.869a8 8 0 0 0 11.578-7.155v-103.355zm-32-163.845c-17.645 0-32-17.944-32-40s14.355-40 32-40 32 17.944 32 40-14.355 40-32 40z"/><circle cx="228" cy="268" r="12"/><circle cx="292" cy="268" r="12"/></svg>