<svg id="Layer_4" height="512" viewBox="0 0 512 512" width="512" xmlns="http://www.w3.org/2000/svg" data-name="Layer 4"><path d="m381.205 370.445 66.795-58.445-32-160s48-32 16-64c0 0-16-32 8-32 96.333 0 24 104 24 104l39.5 165.233a20 20 0 0 1 -5.361 18.575l-122.139 120.192z" fill="#ffc880"/><path d="m376.8 367.182c40-40 7.2-87.182 7.2-87.182 24-56 0-120 0-120l-255.05-3.922s-26.35 66.322-2.35 122.322c0 0-32 48 8 88v25.6h241.4z" fill="#c49206"/><path d="m129.707 369.506-64-56 32-160s-48-32-16-64c0 0 16-32-8-32-96.333 0-24 104-24 104l-39.507 165.233a20 20 0 0 0 5.361 18.575l120.411 118.486z" fill="#ffc880"/><path d="m376 512v-56l16-72c-24-40-48-8-48-8h-168s-40-32-56 8l16 72-.2 56z" fill="#e84700"/><path d="m296 334.22v41.78c0 14.565-12.567 24-27.132 24h-17.656c-14.565 0-27.212-9.435-27.212-24v-41.291z" fill="#ffc880"/><path d="m224 355.544c27.632 4.453 53.937.5 72-3.945v-17.379l-72 .489z" fill="#dd8f3a"/><path d="m358.74 136v120c0 44.991-35.009 80-80 80h-40c-44.991 0-80-35.009-80-80v-120z" fill="#ffc880"/><path d="m158.74 216 52.241-40 20.37 20 31.963-29.444 32.686 24.722 22.191-24.722 40.549 49.444-10.74-88.828h-172z" fill="#e59c45"/><path d="m184 69.852c-54.3 18.879-80.744 80.759-25.26 146.148l48-72 24 32 32-32 32 32 24-32 40 72c49.534-66.045 21.96-119.5-22.74-141.355z" fill="#f4bb03"/><g fill="#e84700"><path d="m184 88v-56l40 16 40-16 32 16 40-16v56z"/><circle cx="263.314" cy="20" r="12"/><circle cx="184" cy="20" r="12"/><circle cx="336" cy="20" r="12"/></g><circle cx="194.74" cy="260" r="12"/><circle cx="314.74" cy="260" r="12"/><path d="m254.74 288a16.018 16.018 0 0 1 -16-16h-16a32 32 0 0 0 64 0h-16a16.018 16.018 0 0 1 -16 16z"/><path d="m9.954 351.015 118.007 116.124-.158 44.832 16 .057.2-56a8.023 8.023 0 0 0 -.19-1.764l-15.441-69.485c3.179-6.9 7.281-10.94 12.5-12.328 9.146-2.429 20.835 3.485 27.135 7.646v35.903h16v-32h33.025c3.712 14.118 17.175 24 34.187 24h17.656c16.974 0 30.406-9.882 34.11-24h33.015v32h16v-37.019c2.969-3.058 8.53-7.414 14.329-7.081 6.832.389 12.872 7.1 17.148 13.573l-15.287 68.792a8.01 8.01 0 0 0 -.19 1.735v56h16v-44.648l119.8-117.888a27.889 27.889 0 0 0 7.485-26.092l-38.695-161.847a210.316 210.316 0 0 0 15.773-29.406c10.995-25.425 12.67-45.778 4.979-60.5-8.192-15.671-26.142-23.619-53.342-23.619-10.534 0-15.715 4.805-18.207 8.836-7.534 12.19 1.22 31.079 3.051 34.741a8 8 0 0 0 1.5 2.079c6.432 6.432 9.231 12.924 8.559 19.847-1.379 14.183-17.324 27.8-23.339 31.84a8 8 0 0 0 -3.407 8.225l31.092 155.459-37.635 32.931a72.225 72.225 0 0 0 1.646-34.866 92.352 92.352 0 0 0 -10.317-27.82c20.206-51.766 3.505-107.546-.62-119.731a85.854 85.854 0 0 0 -1.54-31.481c-5.81-24.125-22.741-45.128-46.78-58.276v-31.466a20.033 20.033 0 1 0 -25.146-8.076l-22.489 9-16.391-8.2a20.01 20.01 0 1 0 -33.672-.58l-22.305 8.922-22.854-9.141a19.986 19.986 0 1 0 -25.146 8.075v26.007c-26.856 10.971-46.063 31.653-53.1 57.452a84.768 84.768 0 0 0 -2.147 33.362c-4.267 11.683-23.5 70.058-3.055 122.611a94.285 94.285 0 0 0 -9.974 28.256 74.089 74.089 0 0 0 2.094 35.465l-35.359-30.937 31.092-155.459a8 8 0 0 0 -3.407-8.225c-6.012-4.008-21.923-17.534-23.335-31.8-.687-6.937 2.111-13.442 8.555-19.885a8 8 0 0 0 1.5-2.079c1.832-3.663 10.585-22.551 3.051-34.741-2.492-4.031-7.672-8.836-18.207-8.836-27.2 0-45.15 7.948-53.342 23.624-7.691 14.717-6.016 35.07 4.979 60.5a210.332 210.332 0 0 0 15.772 29.397l-38.717 161.936a27.879 27.879 0 0 0 7.554 26.049zm278.046 24.985c0 10.5-9.625 16-19.132 16h-17.657c-9.546 0-19.211-5.5-19.211-16v-32.271c2.225.161 4.467.271 6.74.271h40q4.7 0 9.26-.463zm-9.26-48h-40a70.99 70.99 0 0 1 -72-72v-37.578l40.384-60.576 17.216 22.954a8 8 0 0 0 12.057.857l26.343-26.343 26.343 26.343a8 8 0 0 0 12.057-.857l16.6-22.13 33 59.4v37.93a70.99 70.99 0 0 1 -72 72zm121.07 57.735a8 8 0 0 0 -.95-5.851 77.864 77.864 0 0 0 -6.156-8.87l60.564-52.993a8 8 0 0 0 2.577-7.589l-31.009-155.043c7.982-6.365 24.116-21.411 25.984-40.271 1.133-11.441-2.963-22.122-12.177-31.767-2.718-5.922-5.12-15.06-3.239-18.1.696-1.129 3.446-1.251 4.596-1.251 20.766 0 33.94 5.055 39.156 15.024 11.038 21.1-11.941 62.311-21.724 76.408a8 8 0 0 0 -1.213 6.428l39.481 165.146a11.909 11.909 0 0 1 -3.171 11.1l-105.123 103.446zm-23.163-108.886a8 8 0 0 0 .784 7.718 73.485 73.485 0 0 1 10.109 25.522c3.381 17.751-.9 33.657-12.663 47.374a28.128 28.128 0 0 0 -7.786-1.544c-12.5-.65-22.171 7.405-26.7 12.082h-36.391v-27.564c36.657-10.612 62.74-43.909 62.74-84.437v-37.367a158.792 158.792 0 0 0 16.718-28.574c4.108 22.759 6.263 56.283-6.811 86.79zm-40.647-260.849a4 4 0 1 1 -4 4 4 4 0 0 1 4-4zm-72.686 0a4 4 0 1 1 -4 4 4 4 0 0 1 4-4zm-71.314 27.816 29.029 11.611a8 8 0 0 0 5.942 0l36.665-14.666 28.787 14.393a8 8 0 0 0 6.549.272l29.028-11.61v36.184h-136zm-8-27.816a4 4 0 1 1 -4 4 4 4 0 0 1 4-4zm-45.663 109.988c5.17-18.956 18.648-34.581 37.663-44.1v6.112a8 8 0 0 0 8 8h152a7.993 7.993 0 0 0 7.974-7.493c15.989 10.918 27.132 26.2 31.251 43.3 5.1 21.2-.33 44.887-15.731 69.075l-33.76-60.769a8 8 0 0 0 -13.393-.915l-18.466 24.621-25.475-25.476a8 8 0 0 0 -11.313 0l-25.478 25.478-18.469-24.621a8 8 0 0 0 -13.056.362l-41.91 62.865c-19.237-25.993-26.274-52.834-19.837-76.439zm-5.078 156.847a8 8 0 0 0 .7-7.589c-13.567-31.657-9.879-67.419-4.818-90.812a150.042 150.042 0 0 0 21.6 34.453v37.113c0 41.452 27.282 75.35 65.26 85.137v26.863h-37.378a79.989 79.989 0 0 0 -11.257-6.58c-1.07-.51-2.128-.973-3.18-1.413-10.707-18.452.725-36.425 1.234-37.206l-6.679-4.4-6.656-4.437c-.635.952-12.824 19.7-6.847 41.918a33.981 33.981 0 0 0 -8.418 1.094l-.05.015c-29.387-33.921-4.608-72.491-3.511-74.156zm-115.274 45.765 39.5-165.233a8 8 0 0 0 -1.213-6.428c-9.792-14.078-32.782-55.247-21.729-76.4 5.213-9.976 18.389-15.034 39.161-15.034 1.149 0 3.9.121 4.594 1.245 1.735 2.8-.242 11.573-3.242 18.111-9.21 9.644-13.305 20.324-12.173 31.762 1.868 18.86 18 33.905 25.984 40.271l-31.005 155.043a8 8 0 0 0 2.577 7.589l57.91 50.674a52.183 52.183 0 0 0 -5.777 10.831 8 8 0 0 0 -.382 4.707l12.354 55.595-103.322-101.677a11.9 11.9 0 0 1 -3.237-11.056z"/><path d="m344.239 158.06 15.522 3.881c9-35.981-9.32-54.813-10.1-55.6l-5.661 5.659-5.726 5.587c.52.547 12.657 13.705 5.965 40.473z"/><circle cx="220" cy="220" r="12"/><circle cx="292" cy="220" r="12"/></svg>