<svg height="511pt" viewBox="0 1 511 511.99913" width="511pt" xmlns="http://www.w3.org/2000/svg"><path d="m250.765625 403.925781c-18.902344 0-63.566406 18.875-63.566406 53.984375v.085938c-29.417969 1.785156-52.710938 16.578125-52.710938 46.445312h359.738281c0-29.867187-23.320312-44.660156-52.710937-46.445312v-.085938c0-33.011718-34.914063-54.691406-65.152344-53.953125-39.164062-65.464843-119.929687-29.699219-125.597656-.03125zm0 0" fill="#b5722f" fill-rule="evenodd"/><path d="m68.371094 27.789062-49.992188 76.257813c-13.515625 20.601563-7.679687 48.546875 12.925782 62.035156l43.8125 28.734375 8.558593-13.035156 8.160157-12.441406-43.8125-28.734375c-6.542969-4.28125-8.445313-13.320313-4.136719-19.867188l49.992187-76.257812c4.277344-6.546875 13.289063-8.417969 19.863282-4.136719l43.816406 28.734375 16.691406-25.503906-43.8125-28.707031c-20.605469-13.515626-48.546875-7.707032-62.066406 12.921874zm0 0" fill="#64b0d9" fill-rule="evenodd"/><path d="m290.242188 200.683594-69.859376 51.746094-1.445312 57.015624 134.753906-45.679687 14.171875-33.074219-19.042969-35.277344zm0 0" fill="#64b0d9" fill-rule="evenodd"/><path d="m348.820312 195.414062 4.871094 68.320313c6.347656 6.207031 14.226563 10.742187 22.984375 13.066406 14.367188 2.179688 16.917969-5.554687 16.4375-11.164062l-3.289062-38.824219-3.285157-38.796875c-.480468-5.609375-4.28125-12.808594-18.109374-8.21875-7.792969 3.542969-14.511719 8.957031-19.609376 15.617187zm0 0" fill="#e6e6e6" fill-rule="evenodd"/><path d="m210.492188 322.3125-100.433594-43.160156-71.074219-69.261719 8.445313-12.863281 71.300781-108.765625 22.84375-34.855469c7.875-12.015625 23.125-16.09375 33.890625-9.039062l20.519531 13.460937 11.507813-17.542969c6.320312-9.632812 19.382812-12.355468 29.046874-6.035156l96.324219 63.136719c9.636719 6.320312 12.355469 19.386719 6.039063 29.046875-42.796875 65.292968-85.585938 130.585937-128.410156 195.878906zm0 0" fill="#e6e6e6" fill-rule="evenodd"/><path d="m12.34375 232.335938 185.453125 121.542968c4.363281 2.890625 10.289063 1.644532 13.152344-2.71875l7.875-12.015625c2.863281-4.390625 1.644531-10.316406-2.746094-13.175781l-5.585937-3.65625-86.71875-56.847656-84.789063-55.574219-8.332031-5.46875c-4.394532-2.859375-10.316406-1.644531-13.179688 2.722656l-7.878906 12.015625c-2.859375 4.390625-1.613281 10.3125 2.75 13.175782zm0 0" fill="#64b0d9" fill-rule="evenodd"/><path d="m202.976562 355.558594c-1.859374 0-3.667968-.539063-5.242187-1.582032l-185.453125-121.542968c-4.429688-2.90625-5.679688-8.890625-2.78125-13.335938l7.878906-12.015625c2.898438-4.421875 8.878906-5.65625 13.335938-2.753906l8.332031 5.46875 84.789063 55.570313 92.304687 60.503906c4.4375 2.894531 5.6875 8.875 2.78125 13.335937l-7.878906 12.015625c-1.410157 2.144532-3.578125 3.613282-6.109375 4.132813-.652344.136719-1.308594.203125-1.957032.203125zm-190.570312-123.316406 185.453125 121.542968c2.078125 1.375 4.574219 1.851563 7.03125 1.347656 2.46875-.507812 4.585937-1.941406 5.960937-4.035156l7.878907-12.015625c2.835937-4.351562 1.621093-10.195312-2.714844-13.019531l-5.582031-3.65625-86.722656-56.84375-93.121094-61.042969c-4.351563-2.832031-10.191406-1.628906-13.019532 2.6875l-7.878906 12.015625c-2.828125 4.339844-1.609375 10.179688 2.714844 13.019532zm0 0" fill="#64b0d9"/><g fill-rule="evenodd"><path d="m229.878906 148.257812-1.957031 37.601563c-.507813 6.578125-2.605469 13.09375-6.433594 18.960937-12.636719 19.242188-39.21875 24.113282-59.398437 10.878907-20.175782-13.203125-26.296875-39.53125-13.6875-58.800781 3.828125-5.835938 8.957031-10.371094 14.824218-13.460938l33.496094-16.917969c8.246094-3.910156 0 0 17.484375-8.5 7.851563-3.117187 16.125.992188 16.265625 12.042969zm0 0" fill="#64b0d9"/><path d="m365.738281 438.894531c-21.085937-2.578125-40.695312 14.992188-29.503906 29.019531l.058594.058594c9.917969 12.296875 29.726562 4.84375 34.320312-21.960937.507813-4.167969-.992187-6.4375-4.875-7.117188zm0 0" fill="#50d960"/><path d="m291.203125 430.679688c-20.6875-4.789063-42.027344 10.597656-32.390625 25.730468l.027344.054688c8.558594 13.292968 29.050781 7.992187 36.472656-18.191406.9375-4.109376-.3125-6.492188-4.109375-7.59375zm0 0" fill="#50d960"/><path d="m327.394531 143.976562 11.503907-17.542968c6.320312-9.660156 3.601562-22.726563-6.035157-29.046875l-22.757812-14.933594c9.609375 6.347656 12.300781 19.386719 5.980469 29.019531l-128.40625 195.875 22.8125 14.964844 8.445312-12.867188 17.882812-27.289062 53.421876-81.472656zm0 0" fill="#c2c7cc"/><path d="m210.492188 322.3125-17.199219-11.28125h.027343zm5.585937 3.65625-5.585937-3.65625-17.171876-11.28125c4.335938 2.890625 5.554688 8.785156 2.691407 13.148438l-7.878907 12.015624c-2.859374 4.367188-8.785156 5.613282-13.148437 2.75l22.8125 14.933594c4.363281 2.890625 10.289063 1.644532 13.152344-2.71875l7.875-12.015625c2.863281-4.390625 1.644531-10.316406-2.746094-13.175781zm0 0" fill="#4a83c9"/><path d="m227.921875 185.777344 1.957031-37.519532.59375-18.195312c-.058594-5.355469-2.039062-9.066406-4.957031-11.136719-3.089844-2.179687-7.257813-2.492187-11.308594-.90625-.398437.199219-.765625.398438-1.132812.566407l-.03125.398437-.507813 15.558594-1.957031 37.574219c-.507813 6.605468-2.605469 13.09375-6.460937 18.960937-11.335938 17.3125-34.035157 23.011719-53.164063 14.308594 3.003906 3.941406 6.746094 7.425781 11.136719 10.316406 20.179687 13.234375 46.761718 8.359375 59.398437-10.882813 3.828125-5.863281 5.925781-12.382812 6.433594-18.957031zm0 0" fill="#4a83c9"/><path d="m353.691406 263.734375-4.871094-68.320313-58.578124 5.269532-.113282.140625 37.691406-3.371094 5.242188 73.28125zm0 0" fill="#4a83c9"/><path d="m494.226562 504.441406c0-29.867187-23.320312-44.660156-52.710937-46.445312v-.085938c0-28.847656-26.664063-49.054687-53.589844-53.191406 3.429688 8.703125 5.242188 17.796875 5.242188 27.179688 0 27.628906-15.8125 52.933593-42.054688 72.546874h143.113281zm0 0" fill="#8a541e"/></g><path d="m157.945312 222.019531c8.71875 5.71875 18.675782 8.695313 28.757813 8.695313 3.09375 0 6.195313-.28125 9.277344-.847656 13.269531-2.433594 24.570312-9.867188 31.828125-20.933594 4.382812-6.683594 7.023437-14.457032 7.648437-22.488282.003907-.050781.007813-.101562.007813-.148437l2.15625-37.492187c.003906-.066407.007812-.132813.007812-.199219.140625-4.441407.140625-4.441407.199219-5.699219.066406-1.296875.195313-3.886719.59375-13.640625.003906-.179687.007813-.359375 0-.535156-.203125-6.796875-3.324219-12.625-8.558594-15.992188-5.46875-3.519531-12.371093-3.828125-19.429687-.867187-.105469.042968-.207032.089844-.3125.136718l-16.464844 7.792969c-.046875.023438-.09375.046875-.140625.070313l-33.667969 16.804687c-.046875.023438-.097656.050781-.144531.074219-7.125 3.753906-13.21875 9.289062-17.621094 16.007812-7.242187 11.050782-9.550781 24.375-6.492187 37.519532 3.027344 13.015625 10.96875 24.292968 22.355468 31.742187zm-3.222656-60.976562c2.988282-4.558594 7.121094-8.320313 11.953125-10.878907l33.519531-16.734374 16.222657-7.675782c2.238281-.910156 4.148437-1.023437 5.265625-.304687.925781.597656 1.527344 1.898437 1.621094 3.515625-.382813 9.398437-.507813 11.925781-.570313 13.195312-.066406 1.308594-.066406 1.320313-.207031 5.875l-2.144532 37.316406c-.4375 5.46875-2.238281 10.757813-5.214843 15.296876-4.96875 7.574218-12.75 12.671874-21.917969 14.355468-9.292969 1.707032-18.886719-.289062-27.019531-5.625-8.125-5.316406-13.777344-13.316406-15.917969-22.527344-2.113281-9.078124-.546875-18.246093 4.410156-25.808593zm0 0"/><path d="m202.988281 362.992188c5.558594 0 11.011719-2.707032 14.277344-7.6875l7.890625-12.035157c4.984375-7.644531 3.039062-17.8125-4.222656-23.101562l2.90625-4.433594 128.097656-43.425781c6.636719 5.527344 14.433594 9.574218 22.800781 11.792968.265625.070313.53125.128907.804688.167969 2.027343.308594 3.945312.460938 5.753906.460938 5.917969 0 10.664063-1.640625 14.148437-4.90625 3.863282-3.625 5.710938-8.894531 5.199219-14.828125l-3.289062-38.824219-3.285157-38.804687c-.511718-5.953126-3.222656-10.835938-7.632812-13.746094-5.199219-3.429688-12.050781-3.773438-20.375-1.027344-.265625.085938-.527344.1875-.78125.304688-7.769531 3.558593-14.726562 8.804687-20.300781 15.269531l-39.867188 3.585937 28.601563-43.632812 11.511718-17.550782c8.605469-13.164062 4.921876-30.882812-8.21875-39.5l-96.335937-63.144531c-13.179687-8.617187-30.902344-4.929687-39.503906 8.21875l-7.359375 11.21875-14.199219-9.316406c-.28125-.183594-.566406-.351563-.851563-.523437-.121093-.089844-.238281-.183594-.367187-.269532l-43.8125-28.703125c-11.652344-7.648437-25.636719-10.285156-39.371094-7.425781-13.738281 2.859375-25.511719 10.855469-33.15625 22.519531l-49.992187 76.261719c-7.644532 11.652344-10.273438 25.632812-7.410156 39.367188 2.863281 13.726562 10.851562 25.488281 22.5 33.121093.003906 0 .007812.003907.011718.007813l19.136719 12.550781-9.484375 14.472656-2.003906-1.3125c-3.808594-2.507812-8.371094-3.375-12.84375-2.449219-4.472656.925782-8.3125 3.53125-10.808594 7.335938l-7.890625 12.035156c-5.132813 7.875-2.917969 18.472656 4.9375 23.621094l185.449219 121.542969c2.882812 1.890625 6.125 2.792969 9.335937 2.792969zm168.203125-176.175782c4.152344-1.308594 6.296875-.988281 6.921875-.578125.433594.289063.796875 1.261719.894531 2.414063l3.285157 38.796875 3.289062 38.835937c.101563 1.144532-.089843 2.152344-.476562 2.511719-.542969.507813-2.597657 1.183594-6.894531.589844-6.335938-1.746094-12.222657-4.894531-17.195313-9.179688l-4.222656-59.210937-.222657-3.132813c4.042969-4.640625 9.042969-8.425781 14.621094-11.046875zm-29.363281 16.8125 3.910156 54.824219-108.449219 36.765625 57.25-87.335938zm-306.378906-43.867187c-.007813-.003907-.011719-.007813-.019531-.011719-8.269532-5.417969-13.945313-13.785156-15.984376-23.558594-2.039062-9.777344-.175781-19.714844 5.246094-27.984375.003906-.003906.007813-.011719.007813-.015625l49.992187-76.261718c5.429688-8.289063 13.808594-13.972657 23.59375-16.007813 9.78125-2.035156 19.726563-.167969 28.007813 5.265625l23.445312 15.363281c-4.742187 2.25-9.097656 5.65625-12.597656 10.097657l-19.273437-12.636719c-10.125-6.589844-23.722657-3.746094-30.308594 6.328125l-49.984375 76.246094c-3.191407 4.851562-4.289063 10.695312-3.09375 16.460937 1.203125 5.773437 4.542969 10.703125 9.398437 13.878906l19.125 12.542969-8.421875 12.84375zm93.28125-100.550781-13.402344 20.441406-44.039063 67.175781-19.132812-12.550781c-1.476562-.964844-2.5-2.496094-2.875-4.308594-.375-1.800781-.050781-3.605469.925781-5.085938l49.996094-76.269531c1.277344-1.953125 3.492187-3.023437 5.730469-3.023437 1.269531 0 2.546875.347656 3.664062 1.074218zm-112.816407 164.09375 7.878907-12.015626c.375-.574218.933593-.765624 1.234375-.828124.367187-.074219.917968-.089844 1.480468.28125l8.214844 5.386718c.039063.027344.074219.058594.117188.085938.039062.023437.082031.046875.125.074218l70.667968 46.316407c3.492188 2.285156 8.175782 1.3125 10.460938-2.179688 2.289062-3.488281 1.316406-8.175781-2.175781-10.460937l-64.46875-42.253906 30.265625-46.167969c.027344-.035157.054687-.066407.078125-.101563l46.34375-70.707031 21.753906-33.179687c5.617187-8.570313 16.132813-11.648438 23.429687-6.867188l20.515626 13.460938c1.679687 1.101562 3.722656 1.488281 5.683593 1.082031 1.964844-.410157 3.683594-1.578125 4.78125-3.257813l11.511719-17.546875c4.042969-6.183593 12.378906-7.910156 18.582031-3.855469l96.324219 63.140626c6.179688 4.050781 7.910156 12.390624 3.859375 18.582031l-48.5625 74.082031c-.039063.054688-.085937.109375-.125.167969l-71.273437 108.734375c-.015626.023437-.023438.046875-.039063.070312l-4.261719 6.5-67.023437-43.945312c-3.492188-2.285156-8.175781-1.3125-10.464844 2.179687-2.289063 3.488281-1.3125 8.171875 2.175781 10.460938l73.273438 48.039062c.023437.015625.046875.035157.070312.050781.019532.011719.035156.019532.050782.03125l5.550781 3.636719c.878906.574219 1.128906 1.820313.554687 2.703125l-7.878906 12.015625c-.371094.5625-.921875.75-1.21875.8125-.300781.0625-.890625.109375-1.46875-.269531l-185.449219-121.546875c-.886719-.582031-1.148437-1.832031-.574219-2.710937zm0 0"/><path d="m504.941406 496.886719h-3.636718c-3.21875-25.023438-22.632813-41.972657-52.664063-45.8125-1.574219-12.285157-7.414063-23.617188-17.125-33.09375-13.109375-12.792969-32.289063-20.835938-50.949219-21.550781-10.765625-16.410157-24.753906-27.53125-41.640625-33.097657-11.550781-3.78125-23.9375-4.757812-36.808593-2.90625-4.132813.597657-7 4.425781-6.40625 8.558594.597656 4.128906 4.429687 7 8.558593 6.402344 10.554688-1.519531 20.632813-.742188 29.941407 2.304687 14.546874 4.792969 26.550781 14.9375 35.671874 30.148438 1.398438 2.332031 3.925782 3.734375 6.664063 3.667968 16.066406-.375 33.085937 6.234376 44.414063 17.289063 5.929687 5.789063 13 15.535156 13 29.199219 0 3.996094 3.109374 7.300781 7.097656 7.542968 12.574218.761719 40.421875 5.433594 44.964844 31.347657h-343.328126c4.539063-25.914063 32.386719-30.585938 44.960938-31.347657 3.988281-.242187 7.097656-3.632812 7.097656-7.628906 0-30.464844 41.613282-46.425781 56.007813-46.425781 3.625 0 6.738281-2.574219 7.421875-6.132813 1.28125-6.671874 8.582031-14.566406 19.054687-20.609374 3.617188-2.085938 4.855469-6.710938 2.769531-10.324219-2.085937-3.613281-6.707031-4.855469-10.320312-2.769531-12.097656 6.980468-20.765625 15.898437-24.601562 25.113281-10.308594 1.324219-24.488282 6.015625-37.414063 14.71875-15.714844 10.578125-25.289063 24.417969-27.523437 39.585937-30.078126 3.816406-49.515626 20.773438-52.738282 45.820313h-3.636718c-4.171876 0-7.558594 3.382812-7.558594 7.554687 0 4.175782 3.386718 7.558594 7.558594 7.558594h381.164062c4.175781 0 7.558594-3.382812 7.558594-7.558594 0-4.171875-3.382813-7.554687-7.554688-7.554687zm0 0"/><path d="m253.015625 436.253906c-5.296875 7.484375-5.558594 16.207032-.730469 23.972656.0625.109376.132813.222657.203125.332032 4.328125 6.71875 11.125 10.492187 18.628907 10.492187 1.121093 0 2.257812-.085937 3.402343-.257812 12.511719-1.863281 23.265625-13.535157 28.066407-30.460938.035156-.125.066406-.253906.097656-.382812 1.816406-7.984375-1.773438-14.316407-9.367188-16.527344-.132812-.039063-.269531-.074219-.40625-.105469-15.308594-3.542968-32.085937 1.894532-39.894531 12.9375zm19.277344 19.59375c-2.878907.429688-5.230469-.679687-6.984375-3.296875-.039063-.066406-.078125-.132812-.121094-.199219-1.65625-2.597656-1.605469-4.871093.164062-7.371093 3.515626-4.96875 12.597657-8.835938 22.253907-7.308594-3.867188 12.273437-10.589844 17.472656-15.3125 18.175781zm0 0"/><path d="m347.699219 481.289062c1.878906 0 3.789062-.246093 5.703125-.742187 12.242187-3.1875 21.691406-15.929687 24.660156-33.261719.019531-.121094.035156-.238281.050781-.359375 1-8.171875-3.242187-14.101562-11.070312-15.472656-.128907-.023437-.257813-.042969-.390625-.058594-15.605469-1.910156-31.722656 5.28125-38.324219 17.09375-4.515625 8.085938-3.789063 16.886719 2 24.140625.089844.113282.183594.222656.28125.332032 4.472656 5.410156 10.589844 8.328124 17.089844 8.328124zm-6.171875-25.429687c2.96875-5.316406 11.582031-10.128906 21.355468-9.628906-2.535156 12.605469-8.667968 18.488281-13.289062 19.6875-2.878906.75-5.375-.15625-7.421875-2.691407-.046875-.058593-.101563-.125-.160156-.195312-1.796875-2.339844-1.945313-4.5625-.484375-7.171875zm0 0"/></svg>