<svg id="Layer_4" height="512" viewBox="0 0 512 512" width="512" xmlns="http://www.w3.org/2000/svg" data-name="Layer 4"><path d="m228 8h56a100 100 0 0 1 100 100v148a0 0 0 0 1 0 0h-256a0 0 0 0 1 0 0v-148a100 100 0 0 1 100-100z" fill="#b5b4b1"/><path d="m128 256h256v48h-256z" fill="#4ba013"/><path d="m368 512v-128h86a50 50 0 0 0 50-50v-158h-88v128h-320v-128h-88v158c0 27.614 20.386 50 48 50h88v128" fill="#e84700"/><path d="m332.118 104v92a60 60 0 0 1 -60 60h-24c-33.137 0-64.118-26.863-64.118-60v-92z" fill="#ffc880"/><path d="m332.118 168c48-64 0-112-48-112h-52.118c-56 0-97.079 54.16-48 112l36.118-56 16 24 16-24 24 24 24-24z" fill="#f4bb03"/><path d="m16 176s-8-72 32-80v32h32v48z" fill="#ffc880"/><path d="m496 176s0-72-32-80v32h-32v48z" fill="#ffc880"/><circle cx="300" cy="372" fill="#f4bb03" r="28"/><circle cx="220" cy="444" fill="#f4bb03" r="28"/><path d="m184 168c-5.729-103.13 54.189-144.7 88.666-160h-44.666a100 100 0 0 0 -100 100v148h56z" fill="#f9f9f9" opacity=".2"/><path d="m16 176h-8v158c0 24.871 16.54 45.491 40 49.345v-287.345c-40 8-32 80-32 80z" fill="#f9f9f9" opacity=".2"/><path d="m168 272h16v16h-16z"/><path d="m224 272h16v16h-16z"/><path d="m280 272h16v16h-16z"/><path d="m336 272h16v16h-16z"/><path d="m260.118 232a24.027 24.027 0 0 0 24-24h-16a8 8 0 0 1 -16 0h-16a24.027 24.027 0 0 0 24 24z"/><path d="m504 168h-.265a208.109 208.109 0 0 0 -3.906-30.648c-5.993-28.466-17.395-44.99-33.888-49.113a8 8 0 0 0 -9.941 7.761v24h-24a8 8 0 0 0 -8 8v40h-8a8 8 0 0 0 -8 8v120h-16v-188a108.122 108.122 0 0 0 -108-108h-56a108.122 108.122 0 0 0 -108 108v188h-16v-120a8 8 0 0 0 -8-8h-8v-40a8 8 0 0 0 -8-8h-24v-24a8 8 0 0 0 -9.569-7.845c-37.752 7.551-39.774 58.85-38.981 79.873a7.994 7.994 0 0 0 -7.45 7.972v158c0 32.523 24.6 58 56 58h80v120h16v-128a8 8 0 0 0 -8-8h-88c-22.8 0-40-18.056-40-42v-150h72v120a8 8 0 0 0 8 8h320a8 8 0 0 0 8-8v-120h72v150a42.048 42.048 0 0 1 -42 42h-86a8 8 0 0 0 -8 8v128h16v-120h78a58.066 58.066 0 0 0 58-58v-158a8 8 0 0 0 -8-8zm-432 0h-48.518a145.975 145.975 0 0 1 1.464-28.03c2.493-15.524 7.54-26.184 15.054-31.849v19.879a8 8 0 0 0 8 8h24zm304 128h-240v-32h240zm-184-125.644 28.229-43.768 9.233 13.849a8 8 0 0 0 13.313 0l10.587-15.88 17.1 17.1a8 8 0 0 0 11.313 0l16.594-16.594 25.75 45.061v25.876a52.059 52.059 0 0 1 -52 52h-24c-29.896 0-56.119-24.3-56.119-52zm-8.581-16.215c-13.836-20.013-17.066-40.17-9.006-57.58 9.157-19.78 31.761-32.561 57.587-32.561h52.118c23.471 0 45.54 12.6 54.914 31.347 8.317 16.634 6.015 36.739-6.354 57.508l-25.614-44.824a8 8 0 0 0 -12.6-1.687l-18.343 18.343-18.343-18.343a8 8 0 0 0 -12.313 1.219l-9.344 14.015-9.344-14.015a8 8 0 0 0 -6.659-3.563h-.061a8 8 0 0 0 -6.663 3.664zm192.581 93.859h-60.131a67.87 67.87 0 0 0 24.248-52v-25.387c20.746-28.768 25.459-57.953 13.225-82.422-12.019-24.04-39.842-40.191-69.224-40.191h-52.118c-32.037 0-60.34 16.423-72.107 41.84-11.493 24.829-5.607 54.226 16.107 81.038v25.122c0 18.07 7.9 35.235 22.237 48.333 1.406 1.284 2.87 2.5 4.366 3.667h-66.603v-140a92.1 92.1 0 0 1 92-92h56a92.1 92.1 0 0 1 92 92zm64-80v-32h24a8 8 0 0 0 8-8v-17.438c10.772 13.058 14.747 40.718 15.734 57.438z"/><path d="m300 336a36 36 0 1 0 36 36 36.041 36.041 0 0 0 -36-36zm0 56a20 20 0 1 1 20-20 20.023 20.023 0 0 1 -20 20z"/><path d="m220 408a36 36 0 1 0 36 36 36.041 36.041 0 0 0 -36-36zm0 56a20 20 0 1 1 20-20 20.023 20.023 0 0 1 -20 20z"/><circle cx="228" cy="172" r="12"/><circle cx="292" cy="172" r="12"/></svg>