<svg id="Layer_4" height="512" viewBox="0 0 512 512" width="512" xmlns="http://www.w3.org/2000/svg" data-name="Layer 4"><path d="m24 400h24v48h-24z" fill="#472020"/><path d="m464 400h24v48h-24z" fill="#472020"/><path d="m320 304h40l-16-72-14.533-79.386a38.4 38.4 0 0 0 -35.839-24.614h-93.762a13.513 13.513 0 0 0 -11.587 20.465l11.721 19.535 80 120z" fill="#f4bb03"/><g fill="#ffc880"><path d="m200 168h88l24 24v31.041c0 22.621-10.338 40.959-32.959 40.959h-38.082a40.959 40.959 0 0 1 -40.959-40.959z"/><path d="m240 264h40v24h-40z"/><path d="m192 288-56 64-88 8v40h96l48-48z"/><path d="m320 288 56 64 88 8v40h-96l-48-48z"/><path d="m256 328a40 40 0 0 0 40-40h-16v-24h-40v24h-24a40 40 0 0 0 40 40z"/></g><path d="m296 288a40 40 0 0 1 -80 0h-24v160h128v-160z" fill="#56bc13"/><path d="m192 448h128v64h-128z" fill="#e84700"/><path d="m8 360h40v40h-40z" fill="#ffc880"/><path d="m464 360h40v40h-40z" fill="#ffc880"/><path d="m280 264h-40v14.444a80.47 80.47 0 0 0 40-6.418z" fill="#dd8f3a"/><circle cx="276" cy="196" r="12"/><circle cx="228" cy="196" r="12"/><path d="m256 232a8.009 8.009 0 0 1 -8-8h-16a24 24 0 0 0 48 0h-16a8.009 8.009 0 0 1 -8 8z"/><path d="m248 472h16v40h-16z"/><path d="m504 352h-16.653a249.445 249.445 0 0 0 24.653-108c0-66.915-26.692-128.839-75.16-174.365-47.806-44.905-112.03-69.635-180.84-69.635s-133.034 24.73-180.84 69.635c-48.468 45.526-75.16 107.45-75.16 174.365 0 37.845 8.141 75.679 23.079 108h-15.079a8 8 0 0 0 -8 8v40a8 8 0 0 0 8 8h8v40a8 8 0 0 0 8 8h24a8 8 0 0 0 8-8v-40h88a8 8 0 0 0 5.657-2.343l34.343-34.343v140.686h16v-56h112v56h16v-140.686l34.343 34.343a8 8 0 0 0 5.657 2.343h88v40a8 8 0 0 0 8 8h24a8 8 0 0 0 8-8v-40h8a8 8 0 0 0 8-8v-40a8 8 0 0 0 -8-8zm-488-108c0-62.451 24.9-120.233 70.115-162.7 44.828-42.111 105.161-65.3 169.885-65.3s125.057 23.189 169.885 65.3c45.215 42.467 70.115 100.249 70.115 162.7a233.3 233.3 0 0 1 -26.555 108h-5.086l-84.446-7.678-28.283-32.322h8.37a8 8 0 0 0 7.81-9.735l-15.968-71.854-14.506-79.237a8.016 8.016 0 0 0 -.4-1.432 46.674 46.674 0 0 0 -43.308-29.742h-93.762a21.513 21.513 0 0 0 -18.447 32.581l10.581 17.635v52.825a49.031 49.031 0 0 0 40 48.123v8.836h-40a7.973 7.973 0 0 0 -6.015 2.737h-.006l-53.892 61.59-84.446 7.673h-6.767c-16.052-31.622-24.874-69.757-24.874-108zm310.021 38.732h-.006a7.973 7.973 0 0 0 -6.015-2.732h-32v-8.9c19.713-4.107 32-22.063 32-48.062v-31.038a8 8 0 0 0 -2.343-5.657l-24-24a8 8 0 0 0 -5.657-2.343h-83.471l-9.391-15.651a5.513 5.513 0 0 1 4.728-8.349h93.762a30.589 30.589 0 0 1 28.112 18.833l14.391 78.607c.018.1.038.2.06.295l13.836 62.265h-12.4zm-46.98-26.732h-38.082a33 33 0 0 1 -32.959-32.959v-47.041h76.686l19.314 19.313v27.728c0 29.747-17.455 32.959-24.959 32.959zm-31.041 32v-16h24v16a8 8 0 0 0 8 8h6.987a32 32 0 0 1 -61.975 0h14.988a8 8 0 0 0 8-8zm-232 80h24v24h-24zm24 72h-8v-32h8zm100.687-48h-84.687v-24.694l80.724-7.339a8 8 0 0 0 5.3-2.7l41.976-47.976v39.4zm59.313-96h8.679a47.99 47.99 0 0 0 94.641 0h8.68v144h-112zm128 52.686v-39.4l41.979 47.977a8 8 0 0 0 5.3 2.7l80.721 7.343v24.694h-84.687zm152 91.314h-8v-32h8zm16-48h-24v-24h24z"/></svg>