<svg id="Layer_4" height="512" viewBox="0 0 512 512" width="512" xmlns="http://www.w3.org/2000/svg" data-name="Layer 4"><path d="m80 336h-72s0-72 72-56z" fill="#ffc880"/><path d="m296 280s104 0 144 72v160h-360v-160c40-72 144-72 144-72z" fill="#4ba013"/><path d="m440 272h-16v64h77.816c-12.962-70.1-61.816-64-61.816-64z" fill="#ffc880"/><path d="m424 336v128a40 40 0 0 0 40 40 40 40 0 0 0 40-40v-112c-.527-5.736-1.269-11.052-2.184-16z" fill="#59bc19"/><path d="m268.868 344h-17.656c-14.565 0-28.471-9.435-28.471-24v-71.543l72.5-.457-.5 72c-.001 14.565-11.308 24-25.873 24z" fill="#f4ae5b"/><path d="m222.74 311.188c17.628-1.46 46.854-5.554 72.29-17.014l.21-30.174-72.5.457z" fill="#dd8f3a"/><path d="m358.74 72v128c0 44.991-35.009 80-80 80h-40c-44.991 0-80-35.009-80-80v-128z" fill="#ffc880"/><path d="m358.74 160c65.171-86.894-3.14-152-68.306-152h-70.761c-76.032 0-127.573 73.469-60.933 152l48-72 24 32 32-32 32 32 24-32z" fill="#f4bb03"/><path d="m8 336v128a40 40 0 0 0 40 40 40 40 0 0 0 40-40v-128z" fill="#59bc19"/><path d="m32 408 192 96h72l184-96-16-40-184 104h-40l-192-104z" fill="#e84700"/><path d="m318.74 88-24 32-32-32-32 32-24-32-48 72v8.136l41.26-48.136 32 8 32-16 32 16 24-16 38.74 48z" fill="#e59c45"/><path d="m8 336h24c0-56 48-56 48-56-72-16-72 56-72 56z" fill="#fcfbfa" opacity=".2"/><path d="m269.328 8h-49.655c-56.989 0-100.213 41.276-90.232 95.021 34.707-13.702 97.423-43.791 139.887-95.021z" fill="#fcfbfa" opacity=".2"/><circle cx="194.74" cy="204" r="12"/><circle cx="314.74" cy="204" r="12"/><path d="m286.74 216h-16a16 16 0 0 1 -32 0h-16a32 32 0 0 0 64 0z"/><path d="m479.768 277.184c-19.378-15.586-39.9-13.232-40.76-13.122l1.984 15.876c.144-.015 14.818-1.491 28.747 9.713 14.626 11.764 23.46 32.865 26.261 62.72v111.629a32 32 0 0 1 -64 0v-21.933l51.7-26.974a8 8 0 0 0 3.728-10.064l-16-40a8 8 0 0 0 -11.364-3.993l-12.064 6.818v-15.854a7.987 7.987 0 0 0 -.413-2.486c16.9-9.127 27.447-14.1 27.8-14.265l-6.767-14.5c-.365.17-11.576 5.453-29.455 15.141a122.055 122.055 0 0 0 -8.5-10.382c13.147-9.251 21.514-14.684 21.681-14.792l-8.692-13.433c-1.406.91-10.76 7-24.754 16.88-16.906-14.377-38.368-25.5-63.67-32.846a241.929 241.929 0 0 0 -29.48-6.55c24.793-15.4 40.99-42.837 40.99-74.767v-37.386c27.414-37.671 33.686-76 17.6-108.172-16.281-32.563-54.02-54.442-93.906-54.442h-70.761c-41.673 0-76.983 20.349-92.149 53.107-15.377 33.216-6.893 73.086 23.216 109.772v37.121c0 32.151 16.417 59.753 41.5 75.092a241.212 241.212 0 0 0 -27.472 6.225c-27.778 8.065-50.924 20.685-68.5 37.163-17.222-8.9-28.424-13.548-29.226-13.878l-6.09 14.798c.175.072 9.385 3.9 23.929 11.261a118.489 118.489 0 0 0 -11.875 17.457 8 8 0 0 0 -1.006 3.882v19.9l-20.189-10.934a8 8 0 0 0 -11.238 4.063l-16 40a8 8 0 0 0 3.85 10.126l51.577 25.789v23.056a32 32 0 0 1 -64 0v-120h40v-16h-39.244c1.416-9.348 5.481-24.7 17.139-34 9.261-7.392 22.061-9.864 38.105-7.376v9.376h16v-16a8 8 0 0 0 -6.265-7.81c-24.023-5.34-43.507-2.181-57.92 9.381-23.544 18.887-23.815 52.987-23.815 54.429v128a48 48 0 0 0 96 0v-15.056l124.422 62.211a8 8 0 0 0 3.578.845h72a8 8 0 0 0 3.7-.907l116.3-60.678v13.585a48 48 0 0 0 96 0v-112q0-.367-.033-.732c-3.176-34.528-14.009-59.454-32.199-74.084zm-47.768 80.951v18.765l-138.292 78.162c48.244-42.742 101.883-76.325 138.292-96.927zm-6.932-14.446a933.589 933.589 0 0 0 -87.591 56.011q18.789-17.24 41.4-35.349c14.032-11.229 27.368-21.247 38.742-29.506a107.064 107.064 0 0 1 7.449 8.844zm-283.024-283.86c12.517-27.035 42.262-43.829 77.629-43.829h70.761c33.973 0 65.96 18.324 79.6 45.6 8.795 17.589 13.486 45.815-10.525 83.3l-33.776-60.785a8 8 0 0 0 -13.393-.915l-18.465 24.621-25.475-25.478a8 8 0 0 0 -11.314 0l-25.478 25.478-18.467-24.621a8 8 0 0 0 -13.057.362l-41.907 62.86c-22.068-29.868-27.986-60.991-16.133-86.593zm45.481 191.386a71.762 71.762 0 0 1 -20.785-51.215v-37.578l40.385-60.576 17.215 22.954a8 8 0 0 0 12.058.857l26.342-26.344 26.343 26.343a8 8 0 0 0 12.058-.857l16.6-22.13 33 59.4v37.931a70.817 70.817 0 0 1 -64.228 71.6l-50.94.327a71.5 71.5 0 0 1 -48.048-20.712zm100.475 68.853c-.041 10.46-9.645 15.932-19.132 15.932h-17.656c-9.547 0-19.212-5.5-19.212-16v-32.051s52.5-.094 55.32-.355h.07zm-119.172-23.268a230.338 230.338 0 0 1 47.172-8.43v31.63c0 18.243 15.138 32 35.212 32h17.656c20.032 0 35.132-13.757 35.132-32 0-.05 0-.1 0-.15l-.593-31.521a230.194 230.194 0 0 1 47.766 8.471q32.557 9.524 54.385 26.943c-41.523 30.287-106.543 82.257-141.586 133.52-33.917-49.774-83.161-87.538-119.646-110.992-11.9-7.652-23.136-14.259-33.161-19.815 15.02-12.891 34.292-22.82 57.663-29.656zm-80.828 57.314a105.273 105.273 0 0 1 11.33-15.877c10.858 5.9 23.354 13.131 36.621 21.67 34.549 22.242 80.939 57.743 113.222 104.093h-7.145l-154.028-83.432zm206.038 141.886h-68.149l-183.727-91.863 9.929-24.823 184.1 99.72a8 8 0 0 0 3.809.966h40a8 8 0 0 0 3.937-1.036l176.034-99.5 9.914 24.787z"/><circle cx="220" cy="164" r="12"/><circle cx="292" cy="164" r="12"/></svg>